<svg width="376" height="360" viewBox="0 0 376 360" fill="none" xmlns="http://www.w3.org/2000/svg">
<ellipse cx="36.1497" cy="144.501" rx="30.5208" ry="30.5887" fill="#D9D9D9"/>
<ellipse cx="115.736" cy="218.843" rx="30.5208" ry="30.5887" fill="#D9D9D9"/>
<ellipse cx="94.1008" cy="324.162" rx="30.5208" ry="30.5887" fill="#D9D9D9"/>
<ellipse cx="189.14" cy="271.503" rx="30.5208" ry="30.5887" fill="#402FFF"/>
<ellipse cx="262.544" cy="218.843" rx="30.5208" ry="30.5887" fill="#402FFF"/>
<ellipse cx="284.18" cy="324.162" rx="30.5208" ry="30.5887" fill="#402FFF"/>
<ellipse cx="144.324" cy="131.337" rx="30.5208" ry="30.5887" fill="#EC1D35"/>
<ellipse cx="189.14" cy="34.5369" rx="30.5208" ry="30.5887" fill="#EC1D35"/>
<ellipse cx="236.274" cy="131.337" rx="30.5208" ry="30.5887" fill="#EC1D35"/>
<ellipse cx="342.13" cy="143.727" rx="30.5208" ry="30.5887" fill="#EC1D35"/>
<rect width="76.2739" height="12.253" transform="matrix(0.736039 0.67694 -0.675307 0.737537 51.5186 153.317)" fill="#D9D9D9"/>
<rect width="76.3599" height="12.2391" transform="matrix(-0.188608 0.982052 -0.981896 -0.189419 117.044 235.488)" fill="#D9D9D9"/>
<rect width="76.3386" height="12.2426" transform="matrix(-0.401457 0.915878 -0.915219 -0.402956 184.244 54.5709)" fill="#EC1D35"/>
<rect width="76.3386" height="12.2426" transform="matrix(0.401457 0.915878 0.915219 -0.402956 194.163 54.5709)" fill="#EC1D35"/>
<rect width="76.1984" height="12.2651" transform="matrix(0.993955 0.109784 0.109303 -0.994009 249.022 140.043)" fill="#EC1D35"/>
<rect width="76.358" height="12.2394" transform="matrix(0.216285 0.97633 0.976126 -0.217204 259.84 235.054)" fill="#402FFF"/>
<rect width="76.2465" height="12.2574" transform="matrix(0.838886 0.544307 0.542604 -0.839988 209.616 290.704)" fill="#402FFF"/>
</svg>
